<?xml version="1.0"?>
<svg xmlns="http://www.w3.org/2000/svg" xmlns:xlink="http://www.w3.org/1999/xlink" version="1.1" id="Capa_1" x="0px" y="0px" viewBox="0 0 484.389 484.389" style="enable-background:new 0 0 484.389 484.389;" xml:space="preserve" width="512px" height="512px"><g><path id="XMLID_269_" d="M415.856,270.285l-40.011-58.97c-1.902-2.81-5.07-4.488-8.464-4.488c-3.395,0-6.563,1.678-8.465,4.488  l-40.012,58.97c-2.128,3.129-2.345,7.183-0.574,10.531c1.77,3.346,5.25,5.444,9.041,5.444h19.741  c-8.52,35.103-43.825,63.23-81.055,72.077V132.304h31.81c8.783,0,15.905-7.122,15.905-15.905c0-8.783-7.122-15.905-15.905-15.905  h-16.387c11.455-10.608,18.755-25.644,18.755-42.458C300.235,26.032,274.195,0,242.191,0c-32.004,0-58.036,26.032-58.036,58.036  c0,16.814,7.292,31.849,18.755,42.458h-16.379c-8.784,0-15.905,7.122-15.905,15.905c0,8.784,7.121,15.905,15.905,15.905h31.81  v226.033c-37.238-8.838-72.551-36.966-81.071-72.077h19.75c3.79,0,7.268-2.098,9.04-5.444c1.77-3.348,1.552-7.402-0.576-10.531  l-40.011-58.97c-1.902-2.81-5.071-4.488-8.465-4.488c-3.394,0-6.563,1.678-8.465,4.488l-40.012,58.97  c-2.128,3.129-2.344,7.183-0.574,10.531c1.771,3.346,5.25,5.444,9.04,5.444h21.527c8.007,54.596,55.092,110.301,108.111,128.715  l-3.968,4.862c-2.826,3.472-3.074,8.373-0.606,12.107l31.594,47.855c1.895,2.866,5.103,4.59,8.543,4.59  c3.44,0,6.647-1.724,8.535-4.59l31.592-47.855c2.47-3.735,2.222-8.635-0.606-12.099l-3.968-4.87  c53.02-18.414,100.106-74.119,108.113-128.715h21.528c3.79,0,7.269-2.098,9.04-5.444  C418.203,277.468,417.985,273.414,415.856,270.285z M242.191,31.81c14.469,0,26.234,11.766,26.234,26.226  c0,14.468-11.765,26.234-26.234,26.234c-14.461,0-26.226-11.766-26.226-26.234C215.965,43.576,227.73,31.81,242.191,31.81z" data-original="#000000" class="active-path" data-old_color="#000000"/></g> </svg>
