<svg xmlns="http://www.w3.org/2000/svg" viewBox="0 0 60 60" width="512" height="512">
  <path d="M54.07 2.54l-34.14-.08A5.94 5.94 0 0 0 14 8.4v5.13l-8.07.02A5.94 5.94 0 0 0 0 19.47V40.6a5.94 5.94 0 0 0 5.93 5.93H12v10a1 1 0 0 0 1.74.67l9.7-10.68 16.63-.06A5.94 5.94 0 0 0 46 40.54v-.12l5.26 5.79a1 1 0 0 0 1.74-.68v-10h1.07A5.94 5.94 0 0 0 60 29.61V8.47a5.94 5.94 0 0 0-5.93-5.94zM44 40.53a3.93 3.93 0 0 1-3.93 3.93L23 44.54a1 1 0 0 0-.74.32L14 53.95v-8.42a1 1 0 0 0-1-1H5.93A3.93 3.93 0 0 1 2 40.61V19.47a3.93 3.93 0 0 1 3.93-3.93l9.07-.02 24.87-.05h.2A3.93 3.93 0 0 1 44 19.38v21.15zM58 29.6a3.93 3.93 0 0 1-3.93 3.93H52a1 1 0 0 0-1 1v8.4l-5-5.5V19.4a5.93 5.93 0 0 0-5.93-5.93h-.1L16 13.5V8.4a3.93 3.93 0 0 1 3.93-3.93l34.14.07A3.93 3.93 0 0 1 58 8.46v21.15z" data-original="#000000" class="active-path" data-old_color="#000000"/>
</svg>
