<svg xmlns="http://www.w3.org/2000/svg" viewBox="0 0 60 60" width="512" height="512"><path d="M59 28h-2.18c-.95-5.67-5.85-10-11.75-10-5.82 0-10.7 4.12-11.82 9.58A5 5 0 0 0 30 26.33a5 5 0 0 0-3.25 1.25A11.96 11.96 0 0 0 15.07 18c-6.31 0-11.5 4.85-12.02 11H1a1 1 0 1 0 0 2h2.05c.52 6.15 5.7 11 12.02 11 6.47 0 11.74-5.2 11.91-11.67.86-1.29 1.92-2 3.02-2s2.16.72 3.02 2A12.05 12.05 0 0 0 45.07 42C51.65 42 57 36.62 57 30h2a1 1 0 1 0 0-2zM15.07 40C9.52 40 5 35.51 5 30s4.52-10 10.07-10C20.64 20 25 24.4 25 30s-4.36 10-9.93 10zm30 0C39.52 40 35 35.51 35 30s4.52-10 10.07-10C50.64 20 55 24.4 55 30s-4.36 10-9.93 10z" data-original="#000000" class="active-path" data-old_color="#000000"/></svg>