<svg xmlns="http://www.w3.org/2000/svg" viewBox="0 0 455.88 455.88" width="512" height="512">
  <path d="M321.22 257.56a115.95 115.95 0 0 0 23.71-70.63c0-31.56-12.37-61.15-34.85-83.31a116.18 116.18 0 0 0-83.83-33.67c-30.6.43-59.41 12.7-81.15 34.56a116.28 116.28 0 0 0-34.15 81.34 115.88 115.88 0 0 0 23.86 71.9c25.72 33.77 39.88 75.14 39.88 116.49v45.24a36.44 36.44 0 0 0 36.4 36.4h33.85a36.44 36.44 0 0 0 36.4-36.4v-45.24c0-41.8 13.69-82.15 39.88-116.68zm-174.48-8.9c-13.8-18.14-21-39.8-20.79-62.67.5-54.94 45.59-100.27 100.51-101.04a101.34 101.34 0 0 1 73.09 29.35 101.26 101.26 0 0 1 30.39 72.63c0 22.44-7.15 43.73-20.67 61.56-27.6 36.39-42.45 78.84-43.06 122.93h-76.54c-.62-43.67-15.81-87.16-42.93-122.76zm42.95 165.74v-6.07l76.65 8.78v2.37c0 1.25-.13 2.47-.34 3.66l-76.3-8.74zm0-21.17v-6.8h76.65V402l-76.65-8.78zm21.4 47.65a21.4 21.4 0 0 1-18.73-11.08l64.56 7.4a21.27 21.27 0 0 1-11.98 3.68H211.1z" data-original="#000000" class="active-path" data-old_color="#000000"/>
  <path d="M153.78 198.21a76.76 76.76 0 0 1-.83-11.98 7.5 7.5 0 1 0-15-.14c-.04 4.81.29 9.63.99 14.34a7.5 7.5 0 1 0 14.84-2.22zM197.91 312.13a7.52 7.52 0 0 0 7.13-9.84 237.95 237.95 0 0 0-36.82-70 75.77 75.77 0 0 1-7.02-11.07 7.5 7.5 0 1 0-13.32 6.89 90.9 90.9 0 0 0 8.4 13.27 222.98 222.98 0 0 1 34.51 65.6 7.5 7.5 0 0 0 7.12 5.15zM306.75 212.61a7.5 7.5 0 0 0-9.86 3.92 75.02 75.02 0 0 1-9.14 15.65 7.5 7.5 0 0 0 11.95 9.06 90.13 90.13 0 0 0 10.97-18.77 7.5 7.5 0 0 0-3.92-9.86zM227.94 111.94c41.35 0 75 33.64 75 75 0 2.34-.11 4.71-.33 7.03a7.5 7.5 0 0 0 14.94 1.38c.25-2.78.38-5.61.38-8.42 0-49.62-40.37-90-89.99-90a7.5 7.5 0 0 0 0 15zM227.94 57a7.5 7.5 0 0 0 7.5-7.5v-42a7.5 7.5 0 0 0-15 0v42a7.5 7.5 0 0 0 7.5 7.5zM152.06 71.82a7.5 7.5 0 1 0 13-7.5l-21-36.36a7.5 7.5 0 1 0-12.99 7.5l21 36.36zM388.22 272.12l-36.36-21a7.5 7.5 0 1 0-7.5 13l36.36 20.99a7.46 7.46 0 0 0 10.25-2.75 7.5 7.5 0 0 0-2.75-10.25zM67.66 104.37l36.36 20.99a7.46 7.46 0 0 0 10.25-2.75 7.5 7.5 0 0 0-2.75-10.24l-36.36-21a7.5 7.5 0 1 0-7.5 13zM408.68 180.74h-42a7.5 7.5 0 0 0 0 15h42a7.5 7.5 0 0 0 0-15zM96.7 188.24a7.5 7.5 0 0 0-7.5-7.5h-42a7.5 7.5 0 0 0 0 15h42a7.5 7.5 0 0 0 7.5-7.5zM348.12 126.36c1.27 0 2.56-.32 3.74-1l36.36-21a7.5 7.5 0 0 0-7.5-12.98l-36.36 20.99a7.5 7.5 0 0 0 3.76 14zM104.02 251.13l-36.36 20.99a7.5 7.5 0 0 0 7.5 12.99l36.36-21a7.5 7.5 0 0 0-7.5-12.98zM293.57 74.57a7.46 7.46 0 0 0 10.25-2.75l20.99-36.36a7.5 7.5 0 0 0-13-7.5l-20.98 36.36a7.5 7.5 0 0 0 2.74 10.25z" data-original="#000000" class="active-path" data-old_color="#000000"/>
</svg>
