<svg xmlns="http://www.w3.org/2000/svg" viewBox="0 0 52 52" width="512" height="512">
  <path d="M51.91 16.24C51.15 7.9 45.24 1.83 37.84 1.83c-4.93 0-9.45 2.65-11.99 6.9a13.48 13.48 0 0 0-11.7-6.9C6.76 1.83.86 7.89.1 16.24c-.06.37-.3 2.31.44 5.48a23.5 23.5 0 0 0 7.2 12.01l18.11 16.44 18.43-16.44a23.5 23.5 0 0 0 7.2-12.01c.75-3.17.5-5.1.44-5.48zm-2.39 5.02a21.49 21.49 0 0 1-6.59 10.99L25.86 47.48 9.07 32.25a21.5 21.5 0 0 1-6.6-10.99c-.7-3-.41-4.69-.41-4.7l.01-.1C2.73 9.14 7.81 3.83 14.16 3.83c4.68 0 8.81 2.88 10.77 7.51l.92 2.18.92-2.18a12.08 12.08 0 0 1 11.07-7.51c6.35 0 11.43 5.31 12.1 12.72 0 .02.29 1.71-.42 4.71z" data-original="#000000" class="active-path" data-old_color="#000000"/>
</svg>
