<svg xmlns="http://www.w3.org/2000/svg" xmlns:xlink="http://www.w3.org/1999/xlink"><defs><symbol viewBox="0 0 484.389 484.389" id="anchor"><g><path id="anchor_XMLID_269_" d="M415.856,270.285l-40.011-58.97c-1.902-2.81-5.07-4.488-8.464-4.488c-3.395,0-6.563,1.678-8.465,4.488  l-40.012,58.97c-2.128,3.129-2.345,7.183-0.574,10.531c1.77,3.346,5.25,5.444,9.041,5.444h19.741  c-8.52,35.103-43.825,63.23-81.055,72.077V132.304h31.81c8.783,0,15.905-7.122,15.905-15.905c0-8.783-7.122-15.905-15.905-15.905  h-16.387c11.455-10.608,18.755-25.644,18.755-42.458C300.235,26.032,274.195,0,242.191,0c-32.004,0-58.036,26.032-58.036,58.036  c0,16.814,7.292,31.849,18.755,42.458h-16.379c-8.784,0-15.905,7.122-15.905,15.905c0,8.784,7.121,15.905,15.905,15.905h31.81  v226.033c-37.238-8.838-72.551-36.966-81.071-72.077h19.75c3.79,0,7.268-2.098,9.04-5.444c1.77-3.348,1.552-7.402-0.576-10.531  l-40.011-58.97c-1.902-2.81-5.071-4.488-8.465-4.488c-3.394,0-6.563,1.678-8.465,4.488l-40.012,58.97  c-2.128,3.129-2.344,7.183-0.574,10.531c1.771,3.346,5.25,5.444,9.04,5.444h21.527c8.007,54.596,55.092,110.301,108.111,128.715  l-3.968,4.862c-2.826,3.472-3.074,8.373-0.606,12.107l31.594,47.855c1.895,2.866,5.103,4.59,8.543,4.59  c3.44,0,6.647-1.724,8.535-4.59l31.592-47.855c2.47-3.735,2.222-8.635-0.606-12.099l-3.968-4.87  c53.02-18.414,100.106-74.119,108.113-128.715h21.528c3.79,0,7.269-2.098,9.04-5.444  C418.203,277.468,417.985,273.414,415.856,270.285z M242.191,31.81c14.469,0,26.234,11.766,26.234,26.226  c0,14.468-11.765,26.234-26.234,26.234c-14.461,0-26.226-11.766-26.226-26.234C215.965,43.576,227.73,31.81,242.191,31.81z" data-original="#000000" class="active-path" data-old_color="#000000" /></g> </symbol><symbol viewBox="-96 0 457 457.14286" class="" id="badge"><g><path d="m256.070312 0h-246.855468c-5.050782 0-9.1445315 4.089844-9.1445315 9.144531v438.855469c0 3.707031 2.2343755 7.035156 5.6562495 8.457031 3.429688 1.398438 7.363282.613281 9.96875-2.011719l116.949219-117.640624 116.945313 117.640624c1.75 1.761719 4.09375 2.699219 6.480468 2.699219 1.175782 0 2.359376-.226562 3.488282-.6875 3.421875-1.421875 5.65625-4.75 5.65625-8.457031v-438.855469c0-5.054687-4.09375-9.144531-9.144532-9.144531zm-9.140624 425.832031-107.804688-108.4375c-1.714844-1.726562-4.050781-2.699219-6.480469-2.699219-2.433593 0-4.769531.972657-6.484375 2.699219l-107.804687 108.4375v-407.546875h228.574219zm0 0" data-original="#000000" class="active-path" data-old_color="#000000" fill="#FFFFFF" /></g> </symbol><symbol viewBox="0 0 60 60" id="chat">
  <path d="M54.07 2.54l-34.14-.08A5.94 5.94 0 0 0 14 8.4v5.13l-8.07.02A5.94 5.94 0 0 0 0 19.47V40.6a5.94 5.94 0 0 0 5.93 5.93H12v10a1 1 0 0 0 1.74.67l9.7-10.68 16.63-.06A5.94 5.94 0 0 0 46 40.54v-.12l5.26 5.79a1 1 0 0 0 1.74-.68v-10h1.07A5.94 5.94 0 0 0 60 29.61V8.47a5.94 5.94 0 0 0-5.93-5.94zM44 40.53a3.93 3.93 0 0 1-3.93 3.93L23 44.54a1 1 0 0 0-.74.32L14 53.95v-8.42a1 1 0 0 0-1-1H5.93A3.93 3.93 0 0 1 2 40.61V19.47a3.93 3.93 0 0 1 3.93-3.93l9.07-.02 24.87-.05h.2A3.93 3.93 0 0 1 44 19.38v21.15zM58 29.6a3.93 3.93 0 0 1-3.93 3.93H52a1 1 0 0 0-1 1v8.4l-5-5.5V19.4a5.93 5.93 0 0 0-5.93-5.93h-.1L16 13.5V8.4a3.93 3.93 0 0 1 3.93-3.93l34.14.07A3.93 3.93 0 0 1 58 8.46v21.15z" data-original="#000000" class="active-path" data-old_color="#000000" />
</symbol><symbol viewBox="0 0 484.184 484.184" id="dollar-symbol"><g><g>
	<path d="M309.43,219.944c-19-10.5-39.2-18.5-59.2-26.8c-11.6-4.8-22.7-10.4-32.5-18.2c-19.3-15.4-15.6-40.4,7-50.3   c6.4-2.8,13.1-3.7,19.9-4.1c26.2-1.4,51.1,3.4,74.8,14.8c11.8,5.7,15.7,3.9,19.7-8.4c4.2-13,7.7-26.2,11.6-39.3   c2.6-8.8-0.6-14.6-8.9-18.3c-15.2-6.7-30.8-11.5-47.2-14.1c-21.4-3.3-21.4-3.4-21.5-24.9c-0.1-30.3-0.1-30.3-30.5-30.3   c-4.4,0-8.8-0.1-13.2,0c-14.2,0.4-16.6,2.9-17,17.2c-0.2,6.4,0,12.8-0.1,19.3c-0.1,19-0.2,18.7-18.4,25.3c-44,16-71.2,46-74.1,94   c-2.6,42.5,19.6,71.2,54.5,92.1c21.5,12.9,45.3,20.5,68.1,30.6c8.9,3.9,17.4,8.4,24.8,14.6c21.9,18.1,17.9,48.2-8.1,59.6   c-13.9,6.1-28.6,7.6-43.7,5.7c-23.3-2.9-45.6-9-66.6-19.9c-12.3-6.4-15.9-4.7-20.1,8.6c-3.6,11.5-6.8,23.1-10,34.7   c-4.3,15.6-2.7,19.3,12.2,26.6c19,9.2,39.3,13.9,60,17.2c16.2,2.6,16.7,3.3,16.9,20.1c0.1,7.6,0.1,15.3,0.2,22.9   c0.1,9.6,4.7,15.2,14.6,15.4c11.2,0.2,22.5,0.2,33.7-0.1c9.2-0.2,13.9-5.2,13.9-14.5c0-10.4,0.5-20.9,0.1-31.3   c-0.5-10.6,4.1-16,14.3-18.8c23.5-6.4,43.5-19,58.9-37.8C386.33,329.544,370.03,253.444,309.43,219.944z" data-original="#000000" class="active-path" data-old_color="#000000" />
</g></g> </symbol><symbol viewBox="0 0 60 60" id="eyeglasses"><path d="M59 28h-2.18c-.95-5.67-5.85-10-11.75-10-5.82 0-10.7 4.12-11.82 9.58A5 5 0 0 0 30 26.33a5 5 0 0 0-3.25 1.25A11.96 11.96 0 0 0 15.07 18c-6.31 0-11.5 4.85-12.02 11H1a1 1 0 1 0 0 2h2.05c.52 6.15 5.7 11 12.02 11 6.47 0 11.74-5.2 11.91-11.67.86-1.29 1.92-2 3.02-2s2.16.72 3.02 2A12.05 12.05 0 0 0 45.07 42C51.65 42 57 36.62 57 30h2a1 1 0 1 0 0-2zM15.07 40C9.52 40 5 35.51 5 30s4.52-10 10.07-10C20.64 20 25 24.4 25 30s-4.36 10-9.93 10zm30 0C39.52 40 35 35.51 35 30s4.52-10 10.07-10C50.64 20 55 24.4 55 30s-4.36 10-9.93 10z" data-original="#000000" class="active-path" data-old_color="#000000" /></symbol><symbol viewBox="0 0 155.139 155.139" id="fb"><g><g>
	<path id="fb_f_1_" d="M89.584,155.139V84.378h23.742l3.562-27.585H89.584V39.184   c0-7.984,2.208-13.425,13.67-13.425l14.595-0.006V1.08C115.325,0.752,106.661,0,96.577,0C75.52,0,61.104,12.853,61.104,36.452   v20.341H37.29v27.585h23.814v70.761H89.584z" data-original="#010002" class="active-path" data-old_color="#010002" />
</g></g> </symbol><symbol viewBox="0 0 430.117 430.117" id="in"><g><g>
	<path id="in_LinkedIn" d="M430.117,261.543V420.56h-92.188V272.193c0-37.271-13.334-62.707-46.703-62.707   c-25.473,0-40.632,17.142-47.301,33.724c-2.432,5.928-3.058,14.179-3.058,22.477V420.56h-92.219c0,0,1.242-251.285,0-277.32h92.21   v39.309c-0.187,0.294-0.43,0.611-0.606,0.896h0.606v-0.896c12.251-18.869,34.13-45.824,83.102-45.824   C384.633,136.724,430.117,176.361,430.117,261.543z M52.183,9.558C20.635,9.558,0,30.251,0,57.463   c0,26.619,20.038,47.94,50.959,47.94h0.616c32.159,0,52.159-21.317,52.159-47.94C103.128,30.251,83.734,9.558,52.183,9.558z    M5.477,420.56h92.184v-277.32H5.477V420.56z" data-original="#000000" class="active-path" data-old_color="#000000" />
</g></g> </symbol><symbol viewBox="0 0 455.88 455.88" id="light-bulb">
  <path d="M321.22 257.56a115.95 115.95 0 0 0 23.71-70.63c0-31.56-12.37-61.15-34.85-83.31a116.18 116.18 0 0 0-83.83-33.67c-30.6.43-59.41 12.7-81.15 34.56a116.28 116.28 0 0 0-34.15 81.34 115.88 115.88 0 0 0 23.86 71.9c25.72 33.77 39.88 75.14 39.88 116.49v45.24a36.44 36.44 0 0 0 36.4 36.4h33.85a36.44 36.44 0 0 0 36.4-36.4v-45.24c0-41.8 13.69-82.15 39.88-116.68zm-174.48-8.9c-13.8-18.14-21-39.8-20.79-62.67.5-54.94 45.59-100.27 100.51-101.04a101.34 101.34 0 0 1 73.09 29.35 101.26 101.26 0 0 1 30.39 72.63c0 22.44-7.15 43.73-20.67 61.56-27.6 36.39-42.45 78.84-43.06 122.93h-76.54c-.62-43.67-15.81-87.16-42.93-122.76zm42.95 165.74v-6.07l76.65 8.78v2.37c0 1.25-.13 2.47-.34 3.66l-76.3-8.74zm0-21.17v-6.8h76.65V402l-76.65-8.78zm21.4 47.65a21.4 21.4 0 0 1-18.73-11.08l64.56 7.4a21.27 21.27 0 0 1-11.98 3.68H211.1z" data-original="#000000" class="active-path" data-old_color="#000000" />
  <path d="M153.78 198.21a76.76 76.76 0 0 1-.83-11.98 7.5 7.5 0 1 0-15-.14c-.04 4.81.29 9.63.99 14.34a7.5 7.5 0 1 0 14.84-2.22zM197.91 312.13a7.52 7.52 0 0 0 7.13-9.84 237.95 237.95 0 0 0-36.82-70 75.77 75.77 0 0 1-7.02-11.07 7.5 7.5 0 1 0-13.32 6.89 90.9 90.9 0 0 0 8.4 13.27 222.98 222.98 0 0 1 34.51 65.6 7.5 7.5 0 0 0 7.12 5.15zM306.75 212.61a7.5 7.5 0 0 0-9.86 3.92 75.02 75.02 0 0 1-9.14 15.65 7.5 7.5 0 0 0 11.95 9.06 90.13 90.13 0 0 0 10.97-18.77 7.5 7.5 0 0 0-3.92-9.86zM227.94 111.94c41.35 0 75 33.64 75 75 0 2.34-.11 4.71-.33 7.03a7.5 7.5 0 0 0 14.94 1.38c.25-2.78.38-5.61.38-8.42 0-49.62-40.37-90-89.99-90a7.5 7.5 0 0 0 0 15zM227.94 57a7.5 7.5 0 0 0 7.5-7.5v-42a7.5 7.5 0 0 0-15 0v42a7.5 7.5 0 0 0 7.5 7.5zM152.06 71.82a7.5 7.5 0 1 0 13-7.5l-21-36.36a7.5 7.5 0 1 0-12.99 7.5l21 36.36zM388.22 272.12l-36.36-21a7.5 7.5 0 1 0-7.5 13l36.36 20.99a7.46 7.46 0 0 0 10.25-2.75 7.5 7.5 0 0 0-2.75-10.25zM67.66 104.37l36.36 20.99a7.46 7.46 0 0 0 10.25-2.75 7.5 7.5 0 0 0-2.75-10.24l-36.36-21a7.5 7.5 0 1 0-7.5 13zM408.68 180.74h-42a7.5 7.5 0 0 0 0 15h42a7.5 7.5 0 0 0 0-15zM96.7 188.24a7.5 7.5 0 0 0-7.5-7.5h-42a7.5 7.5 0 0 0 0 15h42a7.5 7.5 0 0 0 7.5-7.5zM348.12 126.36c1.27 0 2.56-.32 3.74-1l36.36-21a7.5 7.5 0 0 0-7.5-12.98l-36.36 20.99a7.5 7.5 0 0 0 3.76 14zM104.02 251.13l-36.36 20.99a7.5 7.5 0 0 0 7.5 12.99l36.36-21a7.5 7.5 0 0 0-7.5-12.98zM293.57 74.57a7.46 7.46 0 0 0 10.25-2.75l20.99-36.36a7.5 7.5 0 0 0-13-7.5l-20.98 36.36a7.5 7.5 0 0 0 2.74 10.25z" data-original="#000000" class="active-path" data-old_color="#000000" />
</symbol><symbol viewBox="0 0 52 52" id="like">
  <path d="M51.91 16.24C51.15 7.9 45.24 1.83 37.84 1.83c-4.93 0-9.45 2.65-11.99 6.9a13.48 13.48 0 0 0-11.7-6.9C6.76 1.83.86 7.89.1 16.24c-.06.37-.3 2.31.44 5.48a23.5 23.5 0 0 0 7.2 12.01l18.11 16.44 18.43-16.44a23.5 23.5 0 0 0 7.2-12.01c.75-3.17.5-5.1.44-5.48zm-2.39 5.02a21.49 21.49 0 0 1-6.59 10.99L25.86 47.48 9.07 32.25a21.5 21.5 0 0 1-6.6-10.99c-.7-3-.41-4.69-.41-4.7l.01-.1C2.73 9.14 7.81 3.83 14.16 3.83c4.68 0 8.81 2.88 10.77 7.51l.92 2.18.92-2.18a12.08 12.08 0 0 1 11.07-7.51c6.35 0 11.43 5.31 12.1 12.72 0 .02.29 1.71-.42 4.71z" data-original="#000000" class="active-path" data-old_color="#000000" />
</symbol><symbol viewBox="0 0 512 512" class="" id="liked"><g><g>
	<g>
		<path d="M512,304.021c0-12.821-5.099-24.768-13.867-33.6c9.963-10.901,15.019-25.536,13.632-40.725    c-2.475-27.115-26.923-48.363-55.616-48.363H324.395c6.485-19.819,16.939-56.149,16.939-85.333c0-46.272-39.317-85.333-64-85.333    c-22.165,0-38.016,12.459-38.677,12.992c-2.539,2.048-3.989,5.099-3.989,8.341v72.32l-61.44,133.141l-2.56,1.28v-4.075    c0-5.888-4.779-10.667-10.667-10.667H53.333C23.936,224,0,247.936,0,277.333V448c0,29.397,23.936,53.333,53.333,53.333h64    c23.083,0,42.773-14.72,50.219-35.243c17.749,9.131,41.643,13.931,56.469,13.931H419.84c23.232,0,43.541-15.68,48.32-37.269    c2.453-11.115,1.024-22.315-3.84-32.043c15.744-7.936,26.347-24.171,26.347-42.688c0-7.552-1.728-14.784-5.013-21.333    C501.397,338.752,512,322.517,512,304.021z M149.333,448c0,17.643-14.379,32-32,32h-64c-17.664,0-32-14.357-32-32V277.333    c0-17.643,14.357-32,32-32v0.107h95.957v10.667c0,0.064,0.043,0.107,0.043,0.171V448z M466.987,330.368    c-4.117,0.469-7.595,3.264-8.896,7.211c-1.301,3.925-0.235,8.277,2.795,11.115c5.44,5.141,8.427,12.011,8.427,19.349    c0,13.44-10.155,24.768-23.637,26.304c-4.117,0.469-7.595,3.264-8.896,7.211c-1.301,3.925-0.235,8.277,2.795,11.115    c7.04,6.635,9.856,15.936,7.744,25.472c-2.624,11.883-14.187,20.523-27.499,20.523H224c-15.851,0-41.365-6.848-53.333-15.744    V262.656l15.381-7.68c2.155-1.088,3.883-2.88,4.907-5.077l64-138.667c0.64-1.387,0.981-2.923,0.981-4.459V37.909    c4.437-2.453,12.139-5.803,21.333-5.803c11.691,0,42.667,29.077,42.667,64c0,37.525-20.416,91.669-20.629,92.203    c-1.237,3.264-0.811,6.955,1.195,9.835c2.005,2.88,5.269,4.608,8.789,4.608h146.795c17.792,0,32.896,12.715,34.389,28.971    c1.131,12.16-4.672,23.723-15.168,30.187c-3.285,2.005-5.205,5.653-5.056,9.493c0.128,3.84,2.347,7.296,5.781,9.067    c9.003,4.608,14.592,13.653,14.592,23.595C490.603,317.504,480.448,328.832,466.987,330.368z" data-original="#000000" class="active-path" data-old_color="#000000" fill="#FFFFFF" />
	</g>
</g></g> </symbol><symbol viewBox="0 0 535.578 535.578" id="pause-button"><g><g>
	<g>
		<g>
			<path d="M231.6,516.278c0,10.658-8.641,19.3-19.3,19.3H106.15c-10.659,0-19.3-8.641-19.3-19.3V19.3     c0-10.659,8.641-19.3,19.3-19.3h106.15c10.659,0,19.3,8.641,19.3,19.3V516.278z" data-original="#000000" class="active-path" data-old_color="#000000" />
			<path d="M448.728,516.278c0,10.658-8.641,19.3-19.3,19.3h-106.15c-10.659,0-19.3-8.641-19.3-19.3V19.3     c0-10.659,8.641-19.3,19.3-19.3h106.15c10.659,0,19.3,8.641,19.3,19.3V516.278z" data-original="#000000" class="active-path" data-old_color="#000000" />
		</g>
	</g>
	<g>
	</g>
	<g>
	</g>
	<g>
	</g>
	<g>
	</g>
	<g>
	</g>
	<g>
	</g>
	<g>
	</g>
	<g>
	</g>
	<g>
	</g>
	<g>
	</g>
	<g>
	</g>
	<g>
	</g>
	<g>
	</g>
	<g>
	</g>
	<g>
	</g>
</g></g> </symbol><symbol viewBox="0 0 41.999 41.999" class="" id="play-button"><g><path d="M36.068,20.176l-29-20C6.761-0.035,6.363-0.057,6.035,0.114C5.706,0.287,5.5,0.627,5.5,0.999v40  c0,0.372,0.206,0.713,0.535,0.886c0.146,0.076,0.306,0.114,0.465,0.114c0.199,0,0.397-0.06,0.568-0.177l29-20  c0.271-0.187,0.432-0.494,0.432-0.823S36.338,20.363,36.068,20.176z" data-original="#000000" class="active-path" data-old_color="#000000" /></g> </symbol><symbol viewBox="0 0 59.998 59.998" class="" id="price-tag"><g><path d="M59.206,0.293c-0.391-0.391-1.023-0.391-1.414,0L54.085,4H30.802L1.532,33.511c-0.666,0.666-1.033,1.553-1.033,2.495  s0.367,1.829,1.033,2.495l20.466,20.466c0.687,0.687,1.588,1.031,2.491,1.031c0.907,0,1.814-0.347,2.509-1.041l28.501-29.271V5.414  l3.707-3.707C59.597,1.316,59.597,0.684,59.206,0.293z M53.499,28.874L25.574,57.553c-0.596,0.596-1.566,0.596-2.162,0L2.946,37.087  c-0.596-0.596-0.596-1.566,0.003-2.165L31.636,6h20.449l-4.833,4.833C46.461,10.309,45.516,10,44.499,10c-2.757,0-5,2.243-5,5  s2.243,5,5,5s5-2.243,5-5c0-1.017-0.309-1.962-0.833-2.753l4.833-4.833V28.874z M47.499,15c0,1.654-1.346,3-3,3s-3-1.346-3-3  s1.346-3,3-3c0.462,0,0.894,0.114,1.285,0.301l-1.992,1.992c-0.391,0.391-0.391,1.023,0,1.414C43.987,15.902,44.243,16,44.499,16  s0.512-0.098,0.707-0.293l1.992-1.992C47.386,14.106,47.499,14.538,47.499,15z" data-original="#000000" class="active-path" data-old_color="#000000" fill="#FFFFFF" /></g> </symbol><symbol viewBox="0 0 93.038 93.038" class="" id="sound"><g><g>
	<path d="M46.547,75.521c0,1.639-0.947,3.128-2.429,3.823c-0.573,0.271-1.187,0.402-1.797,0.402c-0.966,0-1.923-0.332-2.696-0.973   l-23.098-19.14H4.225C1.892,59.635,0,57.742,0,55.409V38.576c0-2.334,1.892-4.226,4.225-4.226h12.303l23.098-19.14   c1.262-1.046,3.012-1.269,4.493-0.569c1.481,0.695,2.429,2.185,2.429,3.823L46.547,75.521L46.547,75.521z M62.784,68.919   c-0.103,0.007-0.202,0.011-0.304,0.011c-1.116,0-2.192-0.441-2.987-1.237l-0.565-0.567c-1.482-1.479-1.656-3.822-0.408-5.504   c3.164-4.266,4.834-9.323,4.834-14.628c0-5.706-1.896-11.058-5.484-15.478c-1.366-1.68-1.24-4.12,0.291-5.65l0.564-0.565   c0.844-0.844,1.975-1.304,3.199-1.231c1.192,0.06,2.305,0.621,3.061,1.545c4.977,6.09,7.606,13.484,7.606,21.38   c0,7.354-2.325,14.354-6.725,20.24C65.131,68.216,64.007,68.832,62.784,68.919z M80.252,81.976   c-0.764,0.903-1.869,1.445-3.052,1.495c-0.058,0.002-0.117,0.004-0.177,0.004c-1.119,0-2.193-0.442-2.988-1.237l-0.555-0.555   c-1.551-1.55-1.656-4.029-0.246-5.707c6.814-8.104,10.568-18.396,10.568-28.982c0-11.011-4.019-21.611-11.314-29.847   c-1.479-1.672-1.404-4.203,0.17-5.783l0.554-0.555c0.822-0.826,1.89-1.281,3.115-1.242c1.163,0.033,2.263,0.547,3.036,1.417   c8.818,9.928,13.675,22.718,13.675,36.01C93.04,59.783,88.499,72.207,80.252,81.976z" data-original="#000000" class="active-path" data-old_color="#000000" />
</g></g> </symbol><symbol viewBox="0 0 461.55 461.55" id="sound-off"><g><g>
	<g id="sound-off_volume-off">
		<path d="M345.525,229.5c0-45.9-25.5-84.15-63.75-102v56.1l63.75,63.75C345.525,239.7,345.525,234.6,345.525,229.5z M409.275,229.5    c0,22.95-5.1,45.9-12.75,66.3l38.25,38.25c17.85-30.6,25.5-68.85,25.5-107.1c0-109.65-76.5-201.45-178.5-224.4V56.1    C355.725,81.6,409.275,147.9,409.275,229.5z M34.425,0L1.275,33.15L121.125,153H1.275v153h102l127.5,127.5V262.65L340.425,372.3    c-17.851,12.75-35.7,22.95-58.65,30.601v53.55c35.7-7.65,66.3-22.95,94.35-45.9l51,51l33.15-33.149l-229.5-229.5L34.425,0z     M230.775,25.5l-53.55,53.55l53.55,53.55V25.5z" data-original="#000000" class="active-path" data-old_color="#000000" />
	</g>
</g></g> </symbol><symbol viewBox="0 0 490.727 490.727" class="" id="star"><g><g>
	<path d="M453.443,160.214l-119.7-8.6c-2.5-0.2-4.7-1.7-5.6-4.1l-45.6-111c-6.3-15.3-20.5-24.8-37.1-24.8s-30.7,9.5-37.1,24.9   l-45.7,111.1c-1,2.3-3.1,3.9-5.6,4.1l-119.5,8.6c-16.2,0.9-30,11.5-35.3,27.1c-5.4,15.8-0.9,32.4,11.9,43.3l92.5,76.4   c1.9,1.6,2.8,4.2,2.2,6.6l-28.2,115.4c-3.3,12-1,24.4,6.3,34.1c7.5,9.8,19.2,15.7,31.5,15.7c7.6,0,15-2.3,21.1-6.4l101.1-62.9   c2.1-1.3,4.8-1.3,6.9,0l102.1,62.7c6.4,4.3,13.8,6.6,21.3,6.6c11.5,0,22.9-5.5,30.3-14.8c7.7-9.6,10.5-22.1,7.7-34.6l-28.3-115.7   c-0.6-2.5,0.3-5.1,2.2-6.7l93.9-76.6c12.6-10.8,17.1-27.4,11.8-43.2C483.343,171.814,469.443,161.114,453.443,160.214z    M461.143,211.714l-93.7,76.5c-9.2,7.5-13.4,19.9-10.5,31.5l28.3,115.5c1.5,6.8-1.2,11.5-3,13.7c-2.8,3.5-7,5.7-11.2,5.7   c-2.6,0-5.2-0.8-8-2.7l-102.5-63c-4.9-3-10.5-4.6-16.3-4.6s-11.5,1.6-16.4,4.7l-101.5,63.1c-6.5,4.3-15.2,2.4-19.8-3.6   c-1.9-2.5-3.9-6.8-2.1-13.1l28.3-115.8c2.8-11.5-1.3-23.8-10.4-31.3l-92.3-76.3c-7.3-6.3-5.3-14.4-4.5-16.7s4.1-10,13.7-10.5   l119.7-8.6c11.8-0.9,22-8.2,26.5-19.2l45.7-111.1c3.7-9,12-9.7,14.4-9.7c2.4,0,10.7,0.7,14.4,9.7l45.7,111.1   c4.5,11,14.7,18.3,26.5,19.2l119.9,8.7c9.4,0.5,12.7,8.2,13.5,10.5C466.143,197.514,468.143,205.614,461.143,211.714z" data-original="#000000" class="active-path" data-old_color="#000000" fill="#FFFFFF" />
</g></g> </symbol><symbol viewBox="0 0 512 512" id="tw"><g><g>
	<g>
		<path d="M512,97.248c-19.04,8.352-39.328,13.888-60.48,16.576c21.76-12.992,38.368-33.408,46.176-58.016    c-20.288,12.096-42.688,20.64-66.56,25.408C411.872,60.704,384.416,48,354.464,48c-58.112,0-104.896,47.168-104.896,104.992    c0,8.32,0.704,16.32,2.432,23.936c-87.264-4.256-164.48-46.08-216.352-109.792c-9.056,15.712-14.368,33.696-14.368,53.056    c0,36.352,18.72,68.576,46.624,87.232c-16.864-0.32-33.408-5.216-47.424-12.928c0,0.32,0,0.736,0,1.152    c0,51.008,36.384,93.376,84.096,103.136c-8.544,2.336-17.856,3.456-27.52,3.456c-6.72,0-13.504-0.384-19.872-1.792    c13.6,41.568,52.192,72.128,98.08,73.12c-35.712,27.936-81.056,44.768-130.144,44.768c-8.608,0-16.864-0.384-25.12-1.44    C46.496,446.88,101.6,464,161.024,464c193.152,0,298.752-160,298.752-298.688c0-4.64-0.16-9.12-0.384-13.568    C480.224,136.96,497.728,118.496,512,97.248z" data-original="#000000" class="active-path" data-old_color="#000000" />
	</g>
</g></g> </symbol></defs></svg>